<mxfile host="app.diagrams.net">
  <diagram name="Star Schema" id="QReKZSKZXKm5YzM7VmxS">
    <mxGraphModel dx="1212" dy="762" grid="1" gridSize="10" guides="1" tooltips="1" connect="1" arrows="1" fold="1" page="1" pageScale="1" pageWidth="827" pageHeight="1169" math="0" shadow="0">
      <root>
        <mxCell id="0"/>
        <mxCell id="1" parent="0"/>
        
        <!-- fact_sales -->
        <mxCell id="2" value="fact_sales&#10;------------------&#10;sale_id (PK)&#10;partner_id (FK)&#10;product_code&#10;date_id (FK)&#10;city_id (FK)&#10;client_id (FK)&#10;sold_qty&#10;purchase_price" style="shape=swimlane;whiteSpace=wrap;html=1;" vertex="1" parent="1">
          <mxGeometry x="340" y="160" width="220" height="180" as="geometry"/>
        </mxCell>

        <!-- dim_partner -->
        <mxCell id="3" value="dim_partner&#10;--------------------&#10;partner_id (PK)&#10;partner_name" style="shape=swimlane;whiteSpace=wrap;html=1;" vertex="1" parent="1">
          <mxGeometry x="60" y="20" width="180" height="100" as="geometry"/>
        </mxCell>
        <mxCell id="4" style="endArrow=block;html=1;strokeColor=#000000;" edge="1" parent="1" source="2" target="3">
          <mxGeometry relative="1" as="geometry"/>
        </mxCell>

        <!-- dim_date -->
        <mxCell id="5" value="dim_date&#10;--------------------&#10;date_id (PK)&#10;full_date_time&#10;year&#10;month&#10;day&#10;hour" style="shape=swimlane;whiteSpace=wrap;html=1;" vertex="1" parent="1">
          <mxGeometry x="320" y="400" width="180" height="140" as="geometry"/>
        </mxCell>
        <mxCell id="6" style="endArrow=block;html=1;strokeColor=#000000;" edge="1" parent="1" source="2" target="5">
          <mxGeometry relative="1" as="geometry"/>
        </mxCell>

        <!-- dim_city -->
        <mxCell id="7" value="dim_city&#10;--------------------&#10;city_id (PK)&#10;city_name" style="shape=swimlane;whiteSpace=wrap;html=1;" vertex="1" parent="1">
          <mxGeometry x="580" y="40" width="160" height="100" as="geometry"/>
        </mxCell>
        <mxCell id="8" style="endArrow=block;html=1;strokeColor=#000000;" edge="1" parent="1" source="2" target="7">
          <mxGeometry relative="1" as="geometry"/>
        </mxCell>

        <!-- dim_client -->
        <mxCell id="9" value="dim_client&#10;--------------------&#10;client_id (PK)&#10;client_name&#10;client_city_id (FK)&#10;client_category" style="shape=swimlane;whiteSpace=wrap;html=1;" vertex="1" parent="1">
          <mxGeometry x="600" y="300" width="200" height="120" as="geometry"/>
        </mxCell>
        <mxCell id="10" style="endArrow=block;html=1;strokeColor=#000000;" edge="1" parent="1" source="2" target="9">
          <mxGeometry relative="1" as="geometry"/>
        </mxCell>
        <mxCell id="11" style="endArrow=open;dashed=1;html=1;strokeColor=#888888;" edge="1" parent="1" source="9" target="7">
          <mxGeometry relative="1" as="geometry">
            <mxPoint x="710" y="150" as="targetPoint"/>
          </mxGeometry>
        </mxCell>

      </root>
